<?xml version="1.0" encoding="UTF-8" standalone="no"?><!DOCTYPE svg PUBLIC "-//W3C//DTD SVG 1.1//EN" "http://www.w3.org/Graphics/SVG/1.1/DTD/svg11.dtd"><svg width="100%" height="100%" viewBox="0 0 138 138" version="1.1" xmlns="http://www.w3.org/2000/svg" xmlns:xlink="http://www.w3.org/1999/xlink" xml:space="preserve" xmlns:serif="http://www.serif.com/" style="fill-rule:evenodd;clip-rule:evenodd;stroke-linejoin:round;stroke-miterlimit:2;"><g><path d="M136.826,34.206c-0,-18.879 -15.328,-34.206 -34.207,-34.206l-68.413,0c-18.879,0 -34.206,15.327 -34.206,34.206l0,68.413c0,18.879 15.327,34.207 34.206,34.207l68.413,-0c18.879,-0 34.207,-15.328 34.207,-34.207l-0,-68.413Z" style="fill:#ff4b39;"/><g><path d="M79.989,56.747c0.19,-0.438 0.389,-0.877 0.596,-1.314c7.689,-16.193 24.063,-24.017 36.107,-18.298l-0,-0c12.044,5.719 16.329,23.353 8.639,39.546c-6.322,13.315 -18.517,20.972 -29.349,20.093l-87.174,-0c-1.452,-0 -2.645,-1.147 -2.703,-2.598c-0.058,-1.451 1.04,-2.689 2.487,-2.805c0,-0 13.383,-1.025 20.727,-4.632c1.017,-0.5 1.905,-1.042 2.569,-1.664c0.396,-0.371 0.717,-0.745 0.814,-1.196c0.084,-0.392 -0.051,-0.806 -0.305,-1.274c-0.488,-0.9 -1.37,-1.846 -2.657,-2.902c-0.946,-0.775 -1.253,-2.089 -0.751,-3.204c0.502,-1.114 1.69,-1.754 2.898,-1.559c6.771,1.092 12.252,0.462 15.882,-1.496c2.906,-1.568 4.441,-4.051 3.973,-7.064c-0.172,-1.106 0.355,-2.204 1.326,-2.762c0.971,-0.557 2.185,-0.459 3.054,0.247c3.049,2.477 5.603,4.013 7.766,4.777c1.658,0.586 2.996,0.697 4.078,0.321c2.25,-0.781 3.143,-3.37 3.65,-5.956c0.914,-4.667 3.015,-6.481 4.874,-6.873c1.017,-0.214 2.221,-0.027 3.499,0.613Zm33.511,-12.891c3.325,1.579 5.657,4.537 6.983,8.178c2.215,6.083 1.674,13.986 -1.873,21.455c-3.547,7.469 -9.329,12.883 -15.444,15.011c-3.659,1.274 -7.425,1.336 -10.75,-0.242c-3.324,-1.579 -5.656,-4.537 -6.982,-8.178c-2.215,-6.083 -1.674,-13.986 1.873,-21.455c3.546,-7.47 9.329,-12.883 15.443,-15.012c3.66,-1.273 7.425,-1.336 10.75,0.243Z" style="fill:#fff;"/><path d="M108.183,55.054c4.517,2.145 5.843,8.816 2.959,14.889c-2.883,6.073 -8.891,9.261 -13.408,7.117c-4.517,-2.145 -5.843,-8.817 -2.959,-14.889c2.883,-6.073 8.891,-9.262 13.408,-7.117Z" style="fill:#fff;"/></g></g></svg>