<?xml version="1.0" encoding="UTF-8" standalone="no"?><!DOCTYPE svg PUBLIC "-//W3C//DTD SVG 1.1//EN" "http://www.w3.org/Graphics/SVG/1.1/DTD/svg11.dtd"><svg width="100%" height="100%" viewBox="0 0 145 73" version="1.1" xmlns="http://www.w3.org/2000/svg" xmlns:xlink="http://www.w3.org/1999/xlink" xml:space="preserve" xmlns:serif="http://www.serif.com/" style="fill-rule:evenodd;clip-rule:evenodd;stroke-linejoin:round;stroke-miterlimit:2;"><g><path d="M86.935,25.273c0.224,-0.515 0.457,-1.03 0.701,-1.544c9.037,-19.031 28.28,-28.227 42.435,-21.505l-0,-0c14.155,6.721 19.19,27.446 10.154,46.476c-7.431,15.65 -21.763,24.648 -34.494,23.615l-102.451,-0c-1.707,-0 -3.109,-1.348 -3.178,-3.053c-0.068,-1.706 1.223,-3.161 2.924,-3.297c0,0 15.728,-1.205 24.359,-5.444c1.196,-0.587 2.239,-1.224 3.02,-1.955c0.465,-0.436 0.843,-0.876 0.956,-1.406c0.099,-0.461 -0.059,-0.947 -0.358,-1.497c-0.574,-1.057 -1.61,-2.17 -3.123,-3.41c-1.111,-0.912 -1.473,-2.455 -0.883,-3.766c0.591,-1.31 1.987,-2.061 3.406,-1.832c7.959,1.283 14.399,0.543 18.666,-1.758c3.415,-1.843 5.219,-4.762 4.669,-8.303c-0.202,-1.3 0.418,-2.59 1.559,-3.245c1.141,-0.656 2.567,-0.541 3.589,0.289c3.583,2.912 6.585,4.717 9.127,5.615c1.948,0.689 3.521,0.819 4.793,0.378c2.644,-0.919 3.693,-3.961 4.289,-7.001c1.075,-5.485 3.544,-7.617 5.728,-8.077c1.196,-0.252 2.61,-0.032 4.112,0.72Zm39.385,-15.15c3.907,1.856 6.648,5.332 8.206,9.611c2.604,7.149 1.968,16.437 -2.201,25.215c-4.168,8.779 -10.964,15.142 -18.15,17.643c-4.301,1.496 -8.726,1.57 -12.634,-0.286c-3.907,-1.855 -6.648,-5.331 -8.206,-9.61c-2.604,-7.15 -1.968,-16.438 2.201,-25.216c4.168,-8.778 10.964,-15.141 18.15,-17.642c4.301,-1.497 8.726,-1.57 12.634,0.285Z" style="fill:#ff4b39;"/><path d="M120.071,23.284c5.308,2.52 6.867,10.361 3.478,17.498c-3.389,7.137 -10.45,10.885 -15.759,8.364c-5.308,-2.521 -6.866,-10.361 -3.478,-17.498c3.389,-7.137 10.45,-10.885 15.759,-8.364Z" style="fill:#ff4b39;"/></g></svg>